<svg xmlns="http://www.w3.org/2000/svg" width="900" height="620" viewBox="0 0 900 620" role="img" aria-labelledby="title desc">
<title id="title">Roll-up garage door placeholder</title><desc id="desc">Photo-style workshop frontage with a compact roll-up garage door.</desc>
<defs><filter id="grain"><feTurbulence type="fractalNoise" baseFrequency=".85" numOctaves="3"/><feColorMatrix type="saturate" values="0"/><feComponentTransfer><feFuncA type="table" tableValues="0 .14"/></feComponentTransfer></filter><linearGradient id="steel" x1="0" y1="0" x2="1" y2="1"><stop stop-color="#8d96a0"/><stop offset=".5" stop-color="#4b535d"/><stop offset="1" stop-color="#1b2027"/></linearGradient></defs>
<rect width="900" height="620" fill="#15191e"/><rect width="900" height="620" filter="url(#grain)" opacity=".48"/><rect y="410" width="900" height="210" fill="#24282e"/>
<path d="M105 132h690v350H105z" fill="#242a32"/><path d="M105 132h690v58H105z" fill="#343b45"/><rect x="178" y="218" width="412" height="264" rx="3" fill="url(#steel)"/><g stroke="#12161b" stroke-opacity=".75" stroke-width="3"><path d="M178 238h412M178 258h412M178 278h412M178 298h412M178 318h412M178 338h412M178 358h412M178 378h412M178 398h412M178 418h412M178 438h412M178 458h412"/></g><path d="M194 228h380" stroke="#fff" stroke-opacity=".2" stroke-width="3"/>
<rect x="626" y="220" width="92" height="126" fill="#0e1216"/><path d="M640 236h64v92h-64z" fill="#29313b"/>
<path d="M168 492h430" stroke="#f2a93b" stroke-opacity=".24" stroke-width="4"/>
</svg>